<svg xmlns="http://www.w3.org/2000/svg" width="163" height="48.74" viewBox="0 0 913 273" version="1.1"><path d="M 1.667 0.667 L 1 1.333 1 136.667 L 1 272 136.500 272 L 272 272 272 136.664 L 272 1.328 204.335 0.664 L 136.670 0 69.502 0 L 2.333 0 1.667 0.667 M 83.500 38.429 L 76.500 39.814 72.171 41.391 L 67.841 42.967 61.671 46.234 L 55.500 49.500 49.463 55.518 L 43.426 61.537 39.787 67.528 L 36.147 73.519 33.324 81.510 L 30.500 89.500 30.213 161.750 L 29.925 234 53.436 234 L 76.947 234 77.224 164.750 L 77.500 95.500 79.653 91.500 L 81.805 87.500 84.166 85.298 L 86.527 83.095 90.232 81.548 L 93.936 80 97.718 80.022 L 101.500 80.044 105.500 81.881 L 109.500 83.718 111.212 85.645 L 112.924 87.573 115.113 92.523 L 117.302 97.472 117.401 109.986 L 117.500 122.500 102.250 122.776 L 87 123.052 87 144.500 L 87 165.948 102.250 166.224 L 117.499 166.500 117.597 168 L 117.695 169.500 117.848 201.750 L 118 234 141.544 234 L 165.087 234 164.741 162.750 L 164.394 91.500 162.628 85.500 L 160.862 79.500 157.232 72 L 153.602 64.500 146.051 56.915 L 138.500 49.330 132 45.729 L 125.500 42.128 118 40.025 L 110.500 37.922 100.500 37.482 L 90.500 37.043 83.500 38.429 M 197 137.227 L 197 234 221 234 L 245 234 244.999 137.250 L 244.998 40.500 220.999 40.477 L 197 40.454 197 137.227 M 647 92 L 647 100 658 100 L 669 100 669 92 L 669 84 658 84 L 647 84 647 92 M 736 92 L 736 100.066 747.250 99.783 L 758.500 99.500 758.500 92 L 758.500 84.500 747.250 84.217 L 736 83.934 736 92 M 795 92 L 795 100.066 806.250 99.783 L 817.500 99.500 817.500 92 L 817.500 84.500 806.250 84.217 L 795 83.934 795 92 M 648 92 L 648 99 658 99 L 668 99 668 92 L 668 85 658 85 L 648 85 648 92 M 737 92 L 737 99 747.500 99 L 758 99 758 92 L 758 85 747.500 85 L 737 85 737 92 M 796 92 L 796 99 806.500 99 L 817 99 817 92 L 817 85 806.500 85 L 796 85 796 92 M 828 98.466 L 828 108 825 108 L 822 108 822 116.500 L 822 125 825 125 L 828 125 828 154.532 L 828 184.064 829.421 187.466 L 830.842 190.867 833.872 192.434 L 836.901 194 839.200 193.884 L 841.500 193.768 839.500 193.328 L 837.500 192.888 834.627 191.772 L 831.754 190.655 830.377 187.360 L 829 184.064 829 154.032 L 829 124 826 124 L 823 124 823 116.566 L 823 109.133 825.750 108.816 L 828.500 108.500 828.788 99.250 L 829.075 90 839 90 L 848.925 90 849.212 99.250 L 849.500 108.500 852.250 108.816 L 855 109.133 855 116.566 L 855 124 851.984 124 L 848.967 124 849.234 150.750 L 849.500 177.500 852.250 177.816 L 855 178.133 855 184.983 L 855 191.833 853.750 192.338 L 852.500 192.842 854.292 192.921 L 856.084 193 855.792 185.250 L 855.500 177.500 852.750 177.184 L 850 176.867 850 150.934 L 850 125 853 125 L 856 125 856 116.500 L 856 108 853.038 108 L 850.075 108 849.788 98.750 L 849.500 89.500 838.750 89.216 L 828 88.932 828 98.466 M 647.471 105.215 L 646.978 106.500 647.250 150 L 647.522 193.500 647.761 149.250 L 648 105 657.990 105 L 667.979 105 668.255 149 L 668.532 193 668.516 148.750 L 668.500 104.500 658.232 104.215 L 647.964 103.930 647.471 105.215 M 736.471 105.216 L 735.978 106.500 736.250 150 L 736.522 193.500 736.761 149.250 L 737 105 747.520 105 L 758.041 105 757.770 149 L 757.500 193.001 758.260 193 L 759.021 193 758.760 148.750 L 758.500 104.500 747.732 104.216 L 736.963 103.932 736.471 105.216 M 795.471 105.216 L 794.978 106.500 795.250 150 L 795.522 193.500 795.761 149.250 L 796 105 806.520 105 L 817.041 105 816.770 148.951 L 816.500 192.901 817.261 192.140 L 818.022 191.378 817.761 147.939 L 817.500 104.500 806.732 104.216 L 795.963 103.932 795.471 105.216" stroke="none" fill="#7461b8" fill-rule="evenodd"/><path d="M 648 92 L 648 99 658 99 L 668 99 668 92 L 668 85 658 85 L 648 85 648 92 M 737 92 L 737 99 747.500 99 L 758 99 758 92 L 758 85 747.500 85 L 737 85 737 92 M 796 92 L 796 99 806.500 99 L 817 99 817 92 L 817 85 806.500 85 L 796 85 796 92 M 677 141 L 677 193 687.500 193 L 698 193 698 189.500 L 698 186 698.565 186 L 699.129 186 701.574 188.905 L 704.019 191.811 706.759 192.764 L 709.500 193.717 713.463 193.309 L 717.425 192.900 720.642 190.912 L 723.858 188.925 726.179 184.212 L 728.500 179.500 728.831 151.500 L 729.162 123.500 727.995 118.187 L 726.828 112.874 723.864 109.497 L 720.899 106.121 715.694 104.956 L 710.489 103.791 706.287 104.923 L 702.084 106.054 701.483 107.027 L 700.882 108 699.441 108 L 698 108 698 98.500 L 698 89 687.500 89 L 677 89 677 141 M 766.458 90.250 L 765.980 91.500 766.240 142 L 766.500 192.500 776.750 192.785 L 787 193.070 787 141.035 L 787 89 776.969 89 L 766.937 89 766.458 90.250 M 306.543 91.250 L 306.150 92.500 305.031 105.500 L 303.913 118.500 300.457 153.287 L 297 188.075 297 190.537 L 297 193 306.481 193 L 315.962 193 316.474 190.750 L 316.985 188.500 317.243 182.500 L 317.500 176.500 324 176.500 L 330.500 176.500 330.750 180.500 L 331.001 184.500 331.562 188.750 L 332.123 193 341.561 193 L 351 193 351 191.928 L 351 190.856 347.592 155.678 L 344.183 120.500 343.053 107.500 L 341.922 94.500 341.442 92.250 L 340.962 90 323.950 90 L 306.937 90 306.543 91.250 M 828.788 99.250 L 828.500 108.500 825.750 108.816 L 823 109.133 823 116.566 L 823 124 826 124 L 829 124 829 153.851 L 829 183.702 830.108 186.881 L 831.217 190.061 834.358 191.708 L 837.500 193.356 844.168 193.272 L 850.836 193.187 852.918 192.526 L 855 191.865 855 184.999 L 855 178.133 852.250 177.816 L 849.500 177.500 849.234 150.750 L 848.967 124 851.984 124 L 855 124 855 116.566 L 855 109.133 852.250 108.816 L 849.500 108.500 849.212 99.250 L 848.925 90 839 90 L 829.075 90 828.788 99.250 M 373.667 105.372 L 368.835 106.733 366.167 108.708 L 363.500 110.684 361.325 113.879 L 359.150 117.073 358.075 122.086 L 357 127.098 357 149.868 L 357 172.637 358.605 178.041 L 360.210 183.445 363.891 187.126 L 367.573 190.808 372.036 192.013 L 376.500 193.219 383.541 193.329 L 390.582 193.439 396.342 190.621 L 402.102 187.803 404.547 184.109 L 406.991 180.415 408.042 174.731 L 409.092 169.048 408.796 162.274 L 408.500 155.500 398.095 155.500 L 387.691 155.500 387.862 163.500 L 388.034 171.500 386.737 174 L 385.441 176.500 382.500 176.500 L 379.559 176.500 378.260 174 L 376.960 171.500 377.230 147.168 L 377.500 122.836 379.441 121.418 L 381.382 120 382.500 120 L 383.618 120 385.481 121.362 L 387.344 122.725 387.799 131.396 L 388.254 140.067 398.377 139.784 L 408.500 139.500 408.477 131.500 L 408.454 123.500 407.678 119.729 L 406.901 115.957 403.939 112.583 L 400.977 109.209 396.520 107.115 L 392.064 105.020 385.282 104.516 L 378.500 104.012 373.667 105.372 M 432.667 105.372 L 427.835 106.733 425.167 108.708 L 422.500 110.684 420.308 113.904 L 418.116 117.123 416.981 122.589 L 415.847 128.056 416.173 152.778 L 416.500 177.500 418.653 181.500 L 420.805 185.500 423.166 187.702 L 425.527 189.905 429.514 191.583 L 433.500 193.262 441.500 193.380 L 449.500 193.498 455.121 190.738 L 460.743 187.979 463.417 184.119 L 466.092 180.260 467.100 173.782 L 468.109 167.305 467.804 161.403 L 467.500 155.500 457 155.500 L 446.500 155.500 446.500 164.596 L 446.500 173.691 445.086 175.396 L 443.671 177.101 441.109 176.801 L 438.546 176.500 437.261 174 L 435.976 171.500 436.238 147.168 L 436.500 122.836 438.441 121.418 L 440.382 120 441.500 120 L 442.618 120 444.362 121.275 L 446.106 122.550 446.303 131.025 L 446.500 139.500 457 139.500 L 467.500 139.500 467.810 134.631 L 468.119 129.762 467.100 123.215 L 466.081 116.668 463.203 113.112 L 460.325 109.557 455.795 107.298 L 451.266 105.039 444.383 104.525 L 437.500 104.012 432.667 105.372 M 491.803 105.340 L 487.106 106.664 483.174 109.266 L 479.242 111.868 476.871 116.684 L 474.500 121.500 474.598 147 L 474.695 172.500 475.922 177 L 477.149 181.500 479.509 185.129 L 481.868 188.758 486.583 191.040 L 491.298 193.323 499.448 193.374 L 507.599 193.425 512.149 191.687 L 516.699 189.950 518.800 187.712 L 520.902 185.475 523 180.732 L 525.098 175.990 525.698 167.495 L 526.297 159 515.649 159 L 505 159 505 166.977 L 505 174.954 502.567 176.548 L 500.134 178.142 498.199 177.107 L 496.264 176.071 495.632 172.911 L 495 169.750 495 160.401 L 495 151.052 510.250 150.776 L 525.500 150.500 525.781 137.612 L 526.062 124.724 524.505 119.370 L 522.949 114.015 519.493 110.560 L 516.038 107.104 512.269 105.988 L 508.500 104.871 502.500 104.443 L 496.500 104.015 491.803 105.340 M 551 104.894 L 547.500 105.679 543.984 107.190 L 540.469 108.702 537.276 112.338 L 534.084 115.974 532.951 120.181 L 531.818 124.389 532.501 129.945 L 533.183 135.500 535.342 139.377 L 537.500 143.254 548.263 151.703 L 559.027 160.151 560.513 163.026 L 562 165.901 562 170.250 L 562 174.600 560.800 175.800 L 559.600 177 557.335 177 L 555.070 177 554.035 175.066 L 553 173.131 553 167.066 L 553 161 542.500 161 L 532 161 532 167.318 L 532 173.637 533.473 178.596 L 534.945 183.555 538.223 186.727 L 541.500 189.899 545.500 191.584 L 549.500 193.270 557.594 193.336 L 565.687 193.401 571.594 190.451 L 577.500 187.500 580.500 182.579 L 583.500 177.657 583.500 168.579 L 583.500 159.500 581.096 154.797 L 578.693 150.094 575.596 147.101 L 572.500 144.108 564.034 137.804 L 555.569 131.500 554.131 128.931 L 552.692 126.361 553.349 123.747 L 554.005 121.133 556.190 120.440 L 558.376 119.746 560.188 121.984 L 562 124.222 562 127.611 L 562 131 572.500 131 L 583 131 582.978 125.750 L 582.956 120.500 581.110 116.500 L 579.264 112.500 576.868 110.298 L 574.473 108.095 570.662 106.503 L 566.851 104.911 560.675 104.510 L 554.500 104.109 551 104.894 M 606.500 105.338 L 601.500 106.628 599.387 107.776 L 597.274 108.924 594.179 112.449 L 591.084 115.974 589.908 120.237 L 588.733 124.500 589.790 130.826 L 590.847 137.153 593.173 140.586 L 595.500 144.019 606.279 152.521 L 617.058 161.024 618.095 163.750 L 619.132 166.477 619.184 170.244 L 619.236 174.011 617.996 175.505 L 616.755 177 614.413 177 L 612.070 177 611.035 175.066 L 610 173.131 610 167.066 L 610 161 599.500 161 L 589 161 589 167.318 L 589 173.637 590.473 178.596 L 591.945 183.555 595.223 186.727 L 598.500 189.899 602.500 191.612 L 606.500 193.325 614.702 193.311 L 622.903 193.297 628.702 190.398 L 634.500 187.500 637.295 182.910 L 640.089 178.321 640.673 171.358 L 641.257 164.396 639.643 158.842 L 638.028 153.289 634.264 149.066 L 630.500 144.843 621.535 138.172 L 612.570 131.500 611.131 128.931 L 609.692 126.361 610.349 123.747 L 611.005 121.133 613.190 120.440 L 615.376 119.746 617.188 121.984 L 619 124.222 619 127.611 L 619 131 629.500 131 L 640 131 639.978 125.750 L 639.956 120.500 638.110 116.500 L 636.264 112.500 633.868 110.298 L 631.473 108.095 627.662 106.503 L 623.851 104.911 617.675 104.479 L 611.500 104.047 606.500 105.338 M 648 149 L 648 193 658 193 L 668 193 668 149 L 668 105 658 105 L 648 105 648 149 M 737 149.035 L 737 193.070 747.250 192.785 L 757.500 192.500 757.761 148.750 L 758.021 105 747.511 105 L 737 105 737 149.035 M 796 149.035 L 796 193.070 806.250 192.785 L 816.500 192.500 816.761 148.750 L 817.021 105 806.511 105 L 796 105 796 149.035 M 859 106.467 L 859 107.935 861.466 123.217 L 863.932 138.500 867.966 163.693 L 872 188.885 872 191.443 L 872 194 866 194 L 860 194 860 200.500 L 860 207 874.277 207 L 888.555 207 890.640 205.540 L 892.724 204.080 893.826 201.290 L 894.927 198.500 902.963 152.914 L 911 107.328 911 106.128 L 911 104.928 901.250 105.214 L 891.500 105.500 890.338 115.500 L 889.176 125.500 887.049 145.956 L 884.921 166.412 884.563 166.770 L 884.205 167.128 883.596 162.314 L 882.986 157.500 881.488 139.500 L 879.990 121.500 879.437 115.500 L 878.883 109.500 878.423 107.250 L 877.962 105 868.481 105 L 859 105 859 106.467 M 322.632 113.500 L 321.991 120.500 320.992 135.500 L 319.993 150.500 319.462 155.250 L 318.931 160 324.045 160 L 329.159 160 328.636 157.250 L 328.114 154.500 326.484 132.500 L 324.853 110.500 324.063 108.500 L 323.274 106.500 322.632 113.500 M 496.872 121.651 L 495.500 123.301 495.500 131.901 L 495.500 140.500 500 140.500 L 504.500 140.500 504.790 132.260 L 505.081 124.019 504.005 122.010 L 502.930 120 500.587 120 L 498.245 120 496.872 121.651 M 700.611 121.532 L 699.079 123.064 698.467 126.323 L 697.856 129.582 698.178 151.640 L 698.500 173.698 699.872 175.349 L 701.245 177 703.422 177 L 705.600 177 706.800 175.800 L 708 174.600 708 148.871 L 708 123.143 706.429 121.571 L 704.857 120 703.500 120 L 702.143 120 700.611 121.532" stroke="none" fill="#263149" fill-rule="evenodd"/></svg>