<svg xmlns="http://www.w3.org/2000/svg" viewBox="0 0 666 666" version="1.1"><path d="M 0 333.001 L 0 666.003 333.250 665.751 L 666.500 665.500 666.751 332.750 L 667.003 0 333.501 0 L 0 0 0 333.001 M 0.494 333.500 L 0.494 666.500 0.750 499.669 L 1.006 332.838 0.750 166.669 L 0.494 0.500 0.494 333.500 M 221.500 86.649 L 218.500 86.999 209.297 88.066 L 200.095 89.133 189.297 91.981 L 178.500 94.830 168.517 98.925 L 158.534 103.020 149.517 108.193 L 140.500 113.365 132.500 119.341 L 124.500 125.317 115.790 134.265 L 107.079 143.212 100.800 151.855 L 94.520 160.497 88.394 172.595 L 82.267 184.693 79.156 194.097 L 76.046 203.500 74.412 210.500 L 72.779 217.500 71.243 226.500 L 69.707 235.500 69.311 404.750 L 68.914 574 128.943 574 L 188.972 574 189.236 405.250 L 189.500 236.500 192.272 228.662 L 195.045 220.824 198.972 215.042 L 202.898 209.259 207.699 204.990 L 212.500 200.720 217.532 198.386 L 222.565 196.053 230.136 194.927 L 237.707 193.800 245.103 194.945 L 252.500 196.090 257.819 198.521 L 263.137 200.952 269.403 207.226 L 275.669 213.500 278.974 220.435 L 282.278 227.369 283.786 232.435 L 285.294 237.500 285.735 267.750 L 286.176 298 248.588 298 L 211 298 211 352.500 L 211 407 248.500 407 L 286 407 286 490.500 L 286 574 346.051 574 L 406.102 574 405.718 406.250 L 405.334 238.500 403.752 229 L 402.170 219.500 401.062 214.500 L 399.955 209.500 396.849 199 L 393.744 188.500 388.428 177.221 L 383.111 165.942 376.723 156.221 L 370.335 146.500 364.469 139.654 L 358.602 132.808 351.051 126.319 L 343.500 119.829 335.491 114.483 L 327.482 109.136 318.991 104.635 L 310.500 100.134 302 97.033 L 293.500 93.932 283.810 91.464 L 274.120 88.995 261.316 87.498 L 248.512 86 236.506 86.150 L 224.500 86.300 221.500 86.649 M 483 334 L 483 574 542.500 574 L 602 574 602 334 L 602 94 542.500 94 L 483 94 483 334" stroke="none" fill="#7462b8" fill-rule="evenodd"/><path d="M 221.500 86.649 L 218.500 86.999 209.297 88.066 L 200.095 89.133 189.297 91.981 L 178.500 94.830 168.517 98.925 L 158.534 103.020 149.517 108.193 L 140.500 113.365 132.500 119.341 L 124.500 125.317 115.790 134.265 L 107.079 143.212 100.800 151.855 L 94.520 160.497 88.394 172.595 L 82.267 184.693 79.156 194.097 L 76.046 203.500 74.412 210.500 L 72.779 217.500 71.243 226.500 L 69.707 235.500 69.311 404.750 L 68.914 574 128.943 574 L 188.972 574 189.236 405.250 L 189.500 236.500 192.272 228.662 L 195.045 220.824 198.972 215.042 L 202.898 209.259 207.699 204.990 L 212.500 200.720 217.532 198.386 L 222.565 196.053 230.136 194.927 L 237.707 193.800 245.103 194.945 L 252.500 196.090 257.819 198.521 L 263.137 200.952 269.403 207.226 L 275.669 213.500 278.974 220.435 L 282.278 227.369 283.786 232.435 L 285.294 237.500 285.735 267.750 L 286.176 298 248.588 298 L 211 298 211 352.500 L 211 407 248.500 407 L 286 407 286 490.500 L 286 574 346.051 574 L 406.102 574 405.718 406.250 L 405.334 238.500 403.752 229 L 402.170 219.500 401.062 214.500 L 399.955 209.500 396.849 199 L 393.744 188.500 388.428 177.221 L 383.111 165.942 376.723 156.221 L 370.335 146.500 364.469 139.654 L 358.602 132.808 351.051 126.319 L 343.500 119.829 335.491 114.483 L 327.482 109.136 318.991 104.635 L 310.500 100.134 302 97.033 L 293.500 93.932 283.810 91.464 L 274.120 88.995 261.316 87.498 L 248.512 86 236.506 86.150 L 224.500 86.300 221.500 86.649 M 483 334 L 483 574 542.500 574 L 602 574 602 334 L 602 94 542.500 94 L 483 94 483 334" stroke="none" fill="#ffffff" fill-rule="evenodd"/></svg>